<svg width="100" height="100" viewBox="0 0 100 100" fill="none" xmlns="http://www.w3.org/2000/svg">
<g clip-path="url(#clip0_1192_26)">
<path d="M50 25C50.8288 25 51.6237 25.3292 52.2097 25.9153C52.7958 26.5013 53.125 27.2962 53.125 28.125V37.5C53.125 38.3288 52.7958 39.1237 52.2097 39.7097C51.6237 40.2958 50.8288 40.625 50 40.625C49.1712 40.625 48.3763 40.2958 47.7903 39.7097C47.2042 39.1237 46.875 38.3288 46.875 37.5V28.125C46.875 27.2962 47.2042 26.5013 47.7903 25.9153C48.3763 25.3292 49.1712 25 50 25ZM23.325 35.825C23.911 35.2392 24.7057 34.91 25.5344 34.91C26.363 34.91 27.1577 35.2392 27.7438 35.825L33.4625 41.5375C33.7531 41.828 33.9835 42.173 34.1408 42.5526C34.298 42.9322 34.3789 43.3391 34.3789 43.75C34.3789 44.1609 34.298 44.5678 34.1408 44.9474C33.9835 45.327 33.7531 45.672 33.4625 45.9625C33.172 46.2531 32.827 46.4835 32.4474 46.6408C32.0678 46.798 31.6609 46.8789 31.25 46.8789C30.8391 46.8789 30.4322 46.798 30.0526 46.6408C29.673 46.4835 29.328 46.2531 29.0375 45.9625L23.325 40.2438C22.7392 39.6577 22.41 38.863 22.41 38.0344C22.41 37.2057 22.7392 36.411 23.325 35.825ZM12.5 62.5C12.5 61.6712 12.8292 60.8763 13.4153 60.2903C14.0013 59.7042 14.7962 59.375 15.625 59.375H25.5375C26.3663 59.375 27.1612 59.7042 27.7472 60.2903C28.3333 60.8763 28.6625 61.6712 28.6625 62.5C28.6625 63.3288 28.3333 64.1237 27.7472 64.7097C27.1612 65.2958 26.3663 65.625 25.5375 65.625H15.625C14.7962 65.625 14.0013 65.2958 13.4153 64.7097C12.8292 64.1237 12.5 63.3288 12.5 62.5ZM71.875 62.5C71.875 61.6712 72.2042 60.8763 72.7903 60.2903C73.3763 59.7042 74.1712 59.375 75 59.375H84.375C85.2038 59.375 85.9987 59.7042 86.5847 60.2903C87.1708 60.8763 87.5 61.6712 87.5 62.5C87.5 63.3288 87.1708 64.1237 86.5847 64.7097C85.9987 65.2958 85.2038 65.625 84.375 65.625H75C74.1712 65.625 73.3763 65.2958 72.7903 64.7097C72.2042 64.1237 71.875 63.3288 71.875 62.5ZM76.5875 35.9625C76.1545 35.5318 75.5753 35.2798 74.965 35.2566C74.3548 35.2335 73.7581 35.4408 73.2938 35.8375L47.1687 58.1875C46.5601 58.7004 46.0658 59.3353 45.7179 60.0512C45.37 60.767 45.1763 61.548 45.1492 62.3435C45.1221 63.139 45.2623 63.9313 45.5607 64.6692C45.8591 65.4071 46.309 66.0741 46.8814 66.6272C47.4538 67.1802 48.136 67.607 48.8837 67.8798C49.6314 68.1527 50.4281 68.2656 51.2221 68.2112C52.0162 68.1568 52.79 67.9363 53.4936 67.564C54.1971 67.1918 54.8146 66.676 55.3062 66.05L76.7687 39.1937C77.1421 38.7263 77.3301 38.1377 77.2967 37.5404C77.2632 36.9431 77.0107 36.3791 76.5875 35.9562V35.9625Z" fill="black"/>
<path fill-rule="evenodd" clip-rule="evenodd" d="M-2.78612e-05 62.5C0.0065057 55.2238 1.60105 48.0366 4.6723 41.4403C7.74354 34.844 12.2175 28.9975 17.7818 24.309C23.346 19.6204 29.8666 16.2028 36.8882 14.2947C43.9098 12.3866 51.2633 12.0341 58.4352 13.2616C65.6072 14.4891 72.4248 17.2672 78.4121 21.4019C84.3995 25.5366 89.4122 30.9282 93.1005 37.2004C96.7887 43.4726 99.0636 50.4742 99.7663 57.7165C100.469 64.9587 99.5825 72.267 97.1687 79.1313C94.4062 86.9625 85.6375 89.1438 78.8437 86.9438C70.6812 84.3 59.2187 81.25 50 81.25C40.7875 81.25 29.3125 84.3 21.1562 86.9438C14.3625 89.1438 5.59372 86.9625 2.83122 79.1313C0.950859 73.7883 -0.00655742 68.1642 -2.78612e-05 62.5ZM50 18.75C43.0023 18.7482 36.1063 20.425 29.8907 23.6396C23.6751 26.8542 18.3212 31.5129 14.2785 37.2246C10.2358 42.9364 7.62213 49.5345 6.65689 56.4653C5.69165 63.3961 6.40299 70.4573 8.73122 77.0563C9.99997 80.65 14.5 82.5313 19.2312 80.9938C27.4812 78.3313 39.7375 75 50 75C60.2625 75 72.525 78.325 80.7687 81C85.5 82.5313 90 80.65 91.2687 77.0563C93.597 70.4573 94.3083 63.3961 93.3431 56.4653C92.3778 49.5345 89.7642 42.9364 85.7214 37.2246C81.6787 31.5129 76.3249 26.8542 70.1093 23.6396C63.8937 20.425 56.9977 18.7482 50 18.75Z" fill="black"/>
</g>
<defs>
<clipPath id="clip0_1192_26">
<rect width="100" height="100" fill="white"/>
</clipPath>
</defs>
</svg>
