<svg width="100" height="100" viewBox="0 0 100 100" fill="none" xmlns="http://www.w3.org/2000/svg">
<path d="M25 62.5C25 60.8424 25.6585 59.2527 26.8306 58.0806C28.0027 56.9085 29.5924 56.25 31.25 56.25C32.9076 56.25 34.4973 56.9085 35.6694 58.0806C36.8415 59.2527 37.5 60.8424 37.5 62.5V75C37.5 76.6576 36.8415 78.2473 35.6694 79.4194C34.4973 80.5915 32.9076 81.25 31.25 81.25C29.5924 81.25 28.0027 80.5915 26.8306 79.4194C25.6585 78.2473 25 76.6576 25 75V62.5ZM43.75 62.5C43.75 60.8424 44.4085 59.2527 45.5806 58.0806C46.7527 56.9085 48.3424 56.25 50 56.25C51.6576 56.25 53.2473 56.9085 54.4194 58.0806C55.5915 59.2527 56.25 60.8424 56.25 62.5V75C56.25 76.6576 55.5915 78.2473 54.4194 79.4194C53.2473 80.5915 51.6576 81.25 50 81.25C48.3424 81.25 46.7527 80.5915 45.5806 79.4194C44.4085 78.2473 43.75 76.6576 43.75 75V62.5ZM62.5 62.5C62.5 60.8424 63.1585 59.2527 64.3306 58.0806C65.5027 56.9085 67.0924 56.25 68.75 56.25C70.4076 56.25 71.9973 56.9085 73.1694 58.0806C74.3415 59.2527 75 60.8424 75 62.5V75C75 76.6576 74.3415 78.2473 73.1694 79.4194C71.9973 80.5915 70.4076 81.25 68.75 81.25C67.0924 81.25 65.5027 80.5915 64.3306 79.4194C63.1585 78.2473 62.5 76.6576 62.5 75V62.5Z" fill="black"/>
<path d="M35.9812 6.69379C36.3334 6.90467 36.6406 7.18287 36.8852 7.51249C37.1298 7.84211 37.3071 8.21669 37.4069 8.61484C37.5068 9.01299 37.5272 9.42691 37.467 9.83295C37.4068 10.239 37.2673 10.6292 37.0562 10.9813L21.1437 37.5H78.8562L62.9375 10.9813C62.5115 10.2702 62.3854 9.41896 62.587 8.6149C62.7886 7.81084 63.3014 7.11979 64.0125 6.69379C64.7236 6.26779 65.5748 6.14172 66.3789 6.34332C67.183 6.54492 67.874 7.05768 68.3 7.76879L86.1437 37.5H96.875C97.7038 37.5 98.4987 37.8293 99.0847 38.4153C99.6708 39.0014 100 39.7962 100 40.625V46.875C100 47.7038 99.6708 48.4987 99.0847 49.0847C98.4987 49.6708 97.7038 50 96.875 50H92.9812L81.4562 90.35C81.1762 91.3304 80.5841 92.1928 79.7698 92.8063C78.9555 93.4199 77.9633 93.7512 76.9437 93.75H23.0625C22.0429 93.7512 21.0507 93.4199 20.2364 92.8063C19.4221 92.1928 18.83 91.3304 18.55 90.35L7.01875 50H3.125C2.2962 50 1.50134 49.6708 0.915291 49.0847C0.32924 48.4987 0 47.7038 0 46.875V40.625C0 39.7962 0.32924 39.0014 0.915291 38.4153C1.50134 37.8293 2.2962 37.5 3.125 37.5H13.8563L31.6875 7.76879C31.8984 7.41663 32.1766 7.10946 32.5062 6.86484C32.8358 6.62021 33.2104 6.44292 33.6086 6.34309C34.0067 6.24326 34.4206 6.22285 34.8267 6.28303C35.2327 6.3432 35.6292 6.48278 35.9812 6.69379ZM13.5188 50L24.2313 87.5H75.7688L86.4812 50H13.5188Z" fill="black"/>
</svg>
