<svg width="100" height="100" viewBox="0 0 100 100" fill="current" xmlns="http://www.w3.org/2000/svg">
<path d="M34.375 81.25V89.0625C34.375 89.925 35.075 90.625 35.9375 90.625H42.1875C42.6019 90.625 42.9993 90.4604 43.2924 90.1674C43.5854 89.8743 43.75 89.4769 43.75 89.0625V81.25H46.875V89.0625C46.875 89.925 47.575 90.625 48.4375 90.625H54.6875C55.1019 90.625 55.4993 90.4604 55.7924 90.1674C56.0854 89.8743 56.25 89.4769 56.25 89.0625V81.25H56.775C69.225 81.25 78.125 74.7938 78.125 63.625C78.125 54.2375 71.8313 49.1062 64.4625 48.375V47.825C70.525 46.3125 74.9813 41.7375 74.9813 34.1375C74.9813 24.5625 67.7938 18.75 56.825 18.75H56.25V10.9375C56.25 10.5231 56.0854 10.1257 55.7924 9.83265C55.4993 9.53962 55.1019 9.375 54.6875 9.375H48.4375C48.0231 9.375 47.6257 9.53962 47.3327 9.83265C47.0396 10.1257 46.875 10.5231 46.875 10.9375V18.75H43.2938V10.9375C43.2938 10.5231 43.1291 10.1257 42.8361 9.83265C42.5431 9.53962 42.1457 9.375 41.7313 9.375H35.9375C35.5231 9.375 35.1257 9.53962 34.8327 9.83265C34.5396 10.1257 34.375 10.5231 34.375 10.9375V18.75L21.8875 18.8187C21.4731 18.8187 21.0757 18.9834 20.7827 19.2764C20.4896 19.5694 20.325 19.9668 20.325 20.3812V26.5625C20.325 27.4187 21.0125 28.125 21.875 28.125L26.5938 28.0937C27.8315 28.102 29.0158 28.5995 29.8881 29.4777C30.7605 30.3559 31.25 31.5434 31.25 32.7812V67.1875C31.25 68.4307 30.7562 69.623 29.8771 70.5021C28.998 71.3811 27.8057 71.875 26.5625 71.875L21.8875 71.9437C21.4731 71.9437 21.0757 72.1084 20.7827 72.4014C20.4896 72.6944 20.325 73.0918 20.325 73.5062V79.7562C20.325 80.6187 21.025 81.3187 21.8875 81.3187L34.375 81.25ZM43.2938 28.0437H54.0375C59.7 28.0437 63.025 31.1562 63.025 36.2437C63.025 41.6875 59.4313 44.7562 51.2938 44.7562H43.2938V28.0437ZM43.2938 53.3625H54.7938C61.9 53.3625 65.7688 56.9875 65.7688 62.8875C65.7688 68.8438 61.8563 71.95 52.2813 71.95H43.2938V53.3625Z" fill="current"/>
</svg>
