<svg width="100" height="100" viewBox="0 0 100 100" fill="current" xmlns="http://www.w3.org/2000/svg">
<path d="M16.7375 74.3375C17.3862 74.9887 17.8833 75.775 18.1934 76.6403C18.5034 77.5057 18.6188 78.4287 18.5312 79.3437C18.092 83.5786 17.2592 87.7634 16.0437 91.8437C24.7625 89.825 30.0875 87.4875 32.5063 86.2625C33.8781 85.5677 35.4581 85.403 36.9437 85.8C41.2027 86.9354 45.5923 87.507 50 87.5C74.975 87.5 93.75 69.9563 93.75 50C93.75 30.05 74.975 12.5 50 12.5C25.025 12.5 6.25 30.05 6.25 50C6.25 59.175 10.1062 67.6875 16.7375 74.3375ZM13.6562 98.7437C12.1754 99.0373 10.6898 99.3061 9.2 99.55C7.95 99.75 7 98.45 7.49375 97.2875C8.0487 95.9787 8.55735 94.6508 9.01875 93.3062L9.0375 93.2437C10.5875 88.7437 11.85 83.5688 12.3125 78.75C4.64375 71.0625 0 61 0 50C0 25.8375 22.3875 6.25 50 6.25C77.6125 6.25 100 25.8375 100 50C100 74.1625 77.6125 93.75 50 93.75C45.0478 93.7567 40.1162 93.1137 35.3312 91.8375C32.0812 93.4813 25.0875 96.475 13.6562 98.7437Z" fill="current"/>
<path d="M25 34.375C25 33.5462 25.3292 32.7513 25.9153 32.1653C26.5013 31.5792 27.2962 31.25 28.125 31.25H71.875C72.7038 31.25 73.4987 31.5792 74.0847 32.1653C74.6708 32.7513 75 33.5462 75 34.375C75 35.2038 74.6708 35.9987 74.0847 36.5847C73.4987 37.1708 72.7038 37.5 71.875 37.5H28.125C27.2962 37.5 26.5013 37.1708 25.9153 36.5847C25.3292 35.9987 25 35.2038 25 34.375ZM25 50C25 49.1712 25.3292 48.3763 25.9153 47.7903C26.5013 47.2042 27.2962 46.875 28.125 46.875H71.875C72.7038 46.875 73.4987 47.2042 74.0847 47.7903C74.6708 48.3763 75 49.1712 75 50C75 50.8288 74.6708 51.6237 74.0847 52.2097C73.4987 52.7958 72.7038 53.125 71.875 53.125H28.125C27.2962 53.125 26.5013 52.7958 25.9153 52.2097C25.3292 51.6237 25 50.8288 25 50ZM25 65.625C25 64.7962 25.3292 64.0013 25.9153 63.4153C26.5013 62.8292 27.2962 62.5 28.125 62.5H53.125C53.9538 62.5 54.7487 62.8292 55.3347 63.4153C55.9208 64.0013 56.25 64.7962 56.25 65.625C56.25 66.4538 55.9208 67.2487 55.3347 67.8347C54.7487 68.4208 53.9538 68.75 53.125 68.75H28.125C27.2962 68.75 26.5013 68.4208 25.9153 67.8347C25.3292 67.2487 25 66.4538 25 65.625Z" fill="current"/>
</svg>
