<svg width="100" height="100" viewBox="0 0 100 100" fill="none" xmlns="http://www.w3.org/2000/svg">
<path d="M25 67.3813C25.925 77.8 34.4563 85.1938 47.4438 86.15V93.75H53.9625V86.15C68.15 85.0313 76.95 77.1625 76.95 65.525C76.95 55.5875 71.0313 49.8375 58.475 46.6L53.9625 45.4313V21.6688C60.975 22.3563 65.7063 26.1313 66.9 31.7688H76.0875C75.05 21.7688 66.4625 14.5937 53.9625 13.8V6.25H47.4438V13.9563C35.325 15.3938 27.0063 23.1562 27.0063 33.6812C27.0063 42.7687 33.0437 49.2 43.6375 51.9125L47.45 52.925V78.1187C40.2687 77.0562 35.325 73.1188 34.1312 67.3813H25ZM46.1937 43.4063C39.675 41.7625 36.1937 38.25 36.1937 33.3062C36.1937 27.4062 40.5938 23.05 47.4438 21.8812V43.725L46.1937 43.4063ZM56.1375 55.1063C64.1813 57.125 67.7125 60.475 67.7125 66.1625C67.7125 73.0188 62.55 77.5875 53.9625 78.2812V54.5625L56.1375 55.1V55.1063Z" fill="black"/>
</svg>
