<svg width="100" height="100" viewBox="0 0 100 100" fill="current" xmlns="http://www.w3.org/2000/svg">
<path d="M71.875 37.6687C71.875 38.4975 71.5458 39.2924 70.9597 39.8784C70.3737 40.4645 69.5788 40.7937 68.75 40.7937C67.9212 40.7937 67.1263 40.4645 66.5403 39.8784C65.9542 39.2924 65.625 38.4975 65.625 37.6687C65.625 36.8399 65.9542 36.045 66.5403 35.459C67.1263 34.8729 67.9212 34.5437 68.75 34.5437C69.5788 34.5437 70.3737 34.8729 70.9597 35.459C71.5458 36.045 71.875 36.8399 71.875 37.6687ZM62.5 47.0437C63.3288 47.0437 64.1237 46.7145 64.7097 46.1284C65.2958 45.5424 65.625 44.7475 65.625 43.9187C65.625 43.0899 65.2958 42.295 64.7097 41.709C64.1237 41.1229 63.3288 40.7937 62.5 40.7937C61.6712 40.7937 60.8763 41.1229 60.2903 41.709C59.7042 42.295 59.375 43.0899 59.375 43.9187C59.375 44.7475 59.7042 45.5424 60.2903 46.1284C60.8763 46.7145 61.6712 47.0437 62.5 47.0437ZM78.125 43.9187C78.125 44.7475 77.7958 45.5424 77.2097 46.1284C76.6237 46.7145 75.8288 47.0437 75 47.0437C74.1712 47.0437 73.3763 46.7145 72.7903 46.1284C72.2042 45.5424 71.875 44.7475 71.875 43.9187C71.875 43.0899 72.2042 42.295 72.7903 41.709C73.3763 41.1229 74.1712 40.7937 75 40.7937C75.8288 40.7937 76.6237 41.1229 77.2097 41.709C77.7958 42.295 78.125 43.0899 78.125 43.9187ZM68.75 53.2937C69.5788 53.2937 70.3737 52.9645 70.9597 52.3784C71.5458 51.7924 71.875 50.9975 71.875 50.1687C71.875 49.3399 71.5458 48.545 70.9597 47.959C70.3737 47.3729 69.5788 47.0437 68.75 47.0437C67.9212 47.0437 67.1263 47.3729 66.5403 47.959C65.9542 48.545 65.625 49.3399 65.625 50.1687C65.625 50.9975 65.9542 51.7924 66.5403 52.3784C67.1263 52.9645 67.9212 53.2937 68.75 53.2937ZM28.125 34.5437H34.375V40.7937H40.625V47.0437H34.375V53.2937H28.125V47.0437H21.875V40.7937H28.125V34.5437Z" fill="current"/>
<path d="M19.0687 20.3751C18.962 19.9782 18.9345 19.5642 18.988 19.1567C19.0415 18.7493 19.1748 18.3564 19.3803 18.0005C19.5858 17.6446 19.8595 17.3328 20.1857 17.0828C20.5119 16.8329 20.8842 16.6497 21.2812 16.5438L33.3562 13.3063C33.7713 13.1957 34.2048 13.1718 34.6296 13.2363C35.0543 13.3007 35.4612 13.452 35.8248 13.6807C36.1885 13.9095 36.501 14.2107 36.743 14.5657C36.985 14.9207 37.1512 15.3217 37.2312 15.7438C41.325 15.2501 45.6687 15.0126 50 15.0126C54.5 15.0126 59.0187 15.2688 63.25 15.8001C63.323 15.3716 63.4847 14.963 63.7246 14.6006C63.9645 14.2381 64.2774 13.9297 64.6432 13.695C65.0091 13.4603 65.4199 13.3045 65.8494 13.2376C66.2788 13.1707 66.7176 13.1941 67.1375 13.3063L79.2125 16.5438C79.6732 16.6671 80.0996 16.8943 80.459 17.2079C80.8184 17.5215 81.1012 17.9132 81.2858 18.353C81.4704 18.7928 81.5519 19.269 81.524 19.7452C81.4962 20.2214 81.3597 20.6848 81.125 21.1001C82 21.6626 82.7875 22.2876 83.4562 22.9563C86.0062 25.5063 88.3312 29.5188 90.3 34.0313C92.3 38.6126 94.0437 43.9751 95.3312 49.4438C96.6187 54.9126 97.4562 60.5688 97.6062 65.7313C97.7562 70.8313 97.2375 75.7438 95.5562 79.5438C94.7895 81.2498 93.5034 82.67 91.8816 83.6016C90.2597 84.5332 88.3849 84.9286 86.525 84.7313C82.55 84.3126 79.5562 82.2688 77.0687 79.9001C75.5375 78.4501 73.9687 76.6126 72.45 74.8501C71.6625 73.9251 70.8875 73.0251 70.15 72.2063C65.6 67.1813 60.1687 62.6626 50 62.6626C39.8312 62.6626 34.4 67.1813 29.85 72.2063C29.1062 73.0251 28.3375 73.9251 27.55 74.8501C26.0312 76.6126 24.4625 78.4438 22.9312 79.9001C20.4437 82.2751 17.45 84.3126 13.475 84.7313C11.615 84.9286 9.74028 84.5332 8.1184 83.6016C6.49652 82.67 5.21043 81.2498 4.44373 79.5438C2.75623 75.7438 2.24373 70.8251 2.38748 65.7313C2.53748 60.5688 3.38748 54.9188 4.66873 49.4438C5.95623 43.9751 7.70623 38.6126 9.69998 34.0313C11.6687 29.5188 13.9937 25.5063 16.5375 22.9563C17.3545 22.1549 18.2628 21.4522 19.2437 20.8626C19.1718 20.7031 19.1133 20.5442 19.0687 20.3751ZM31.7937 22.9501C26.3125 24.1063 22.6125 25.7188 20.9625 27.3751C19.2375 29.1001 17.2937 32.2688 15.4312 36.5313C13.4554 41.1662 11.891 45.966 10.7562 50.8751C9.55745 55.8057 8.84777 60.8426 8.63748 65.9125C8.49998 70.6313 9.02498 74.4625 10.1562 77.0125C10.3879 77.5092 10.7692 77.9209 11.2467 78.1899C11.7242 78.4589 12.2739 78.5718 12.8187 78.5126C14.8625 78.3001 16.6312 77.2688 18.625 75.3751C19.95 74.1126 21.125 72.7313 22.4687 71.1626C23.3 70.1876 24.1937 69.1438 25.2187 68.0126C30.3812 62.3063 37.3625 56.4188 50 56.4188C62.6375 56.4188 69.6187 62.3063 74.7812 68.0126C75.8062 69.1438 76.7 70.1876 77.5312 71.1626C78.8687 72.7313 80.05 74.1126 81.375 75.3751C83.3625 77.2688 85.1312 78.3001 87.1812 78.5188C87.7268 78.5775 88.277 78.4638 88.7546 78.1936C89.2321 77.9234 89.613 77.5104 89.8437 77.0125C90.9687 74.4625 91.5 70.6375 91.3625 65.9125C91.1521 60.8426 90.4424 55.8058 89.2437 50.8751C88.1088 45.966 86.5444 41.1663 84.5687 36.5313C82.7062 32.2688 80.7562 29.0938 79.0375 27.3751C77.3875 25.7188 73.6875 24.1063 68.2062 22.9501C62.8937 21.8313 56.475 21.2626 50 21.2626C43.525 21.2626 37.1062 21.8313 31.7937 22.9501Z" fill="current"/>
</svg>
