<svg width="100" height="100" viewBox="0 0 100 100" fill="none" xmlns="http://www.w3.org/2000/svg">
<g clip-path="url(#clip0_1192_22)">
<path d="M18.75 15.625C18.75 11.481 20.3962 7.50671 23.3265 4.57646C26.2567 1.6462 30.231 0 34.375 0C38.519 0 42.4933 1.6462 45.4235 4.57646C48.3538 7.50671 50 11.481 50 15.625C50 11.481 51.6462 7.50671 54.5765 4.57646C57.5067 1.6462 61.481 0 65.625 0C69.769 0 73.7433 1.6462 76.6735 4.57646C79.6038 7.50671 81.25 11.481 81.25 15.625V15.6625C81.25 16.1 81.25 17.35 81.0125 18.75H93.75C95.4076 18.75 96.9973 19.4085 98.1694 20.5806C99.3415 21.7527 100 23.3424 100 25V37.5C100 39.1576 99.3415 40.7473 98.1694 41.9194C96.9973 43.0915 95.4076 43.75 93.75 43.75V90.625C93.75 93.1114 92.7623 95.496 91.0041 97.2541C89.246 99.0123 86.8614 100 84.375 100H15.625C13.1386 100 10.754 99.0123 8.99587 97.2541C7.23772 95.496 6.25 93.1114 6.25 90.625V43.75C4.5924 43.75 3.00269 43.0915 1.83058 41.9194C0.65848 40.7473 0 39.1576 0 37.5V25C0 23.3424 0.65848 21.7527 1.83058 20.5806C3.00269 19.4085 4.5924 18.75 6.25 18.75H18.9875C18.8224 17.7293 18.743 16.6965 18.75 15.6625V15.625ZM25.425 18.75H43.75V15.625C43.75 14.3939 43.5075 13.1748 43.0364 12.0373C42.5652 10.8999 41.8747 9.86642 41.0041 8.99587C40.1336 8.12532 39.1001 7.43477 37.9627 6.96363C36.8252 6.49249 35.6061 6.25 34.375 6.25C33.1439 6.25 31.9248 6.49249 30.7873 6.96363C29.6499 7.43477 28.6164 8.12532 27.7459 8.99587C26.8753 9.86642 26.1848 10.8999 25.7136 12.0373C25.2425 13.1748 25 14.3939 25 15.625C25 16.1563 25.0125 17.3375 25.2813 18.3125C25.3188 18.4615 25.3668 18.6077 25.425 18.75ZM56.25 18.75H74.575C74.6325 18.6075 74.6805 18.4613 74.7187 18.3125C74.9875 17.3375 75 16.1563 75 15.625C75 13.1386 74.0123 10.754 72.2541 8.99587C70.496 7.23772 68.1114 6.25 65.625 6.25C63.1386 6.25 60.754 7.23772 58.9959 8.99587C57.2377 10.754 56.25 13.1386 56.25 15.625V18.75ZM6.25 25V37.5H43.75V25H6.25ZM56.25 25V37.5H93.75V25H56.25ZM87.5 43.75H56.25V93.75H84.375C85.2038 93.75 85.9987 93.4208 86.5847 92.8347C87.1708 92.2487 87.5 91.4538 87.5 90.625V43.75ZM43.75 93.75V43.75H12.5V90.625C12.5 91.4538 12.8292 92.2487 13.4153 92.8347C14.0013 93.4208 14.7962 93.75 15.625 93.75H43.75Z" fill="black"/>
</g>
<defs>
<clipPath id="clip0_1192_22">
<rect width="100" height="100" fill="white"/>
</clipPath>
</defs>
</svg>
