<svg width="100" height="100" viewBox="0 0 100 100" fill="current" xmlns="http://www.w3.org/2000/svg">
<g clip-path="url(#clip0_1043_4)">
<path d="M67.8375 44.6625C68.1285 44.9528 68.3594 45.2976 68.5169 45.6773C68.6745 46.0569 68.7556 46.4639 68.7556 46.875C68.7556 47.286 68.6745 47.693 68.5169 48.0727C68.3594 48.4523 68.1285 48.7972 67.8375 49.0875L49.0875 67.8375C48.7972 68.1285 48.4524 68.3594 48.0727 68.5169C47.6931 68.6745 47.286 68.7556 46.875 68.7556C46.464 68.7556 46.0569 68.6745 45.6773 68.5169C45.2976 68.3594 44.9528 68.1285 44.6625 67.8375L35.2875 58.4625C34.9969 58.1719 34.7665 57.827 34.6092 57.4474C34.452 57.0677 34.371 56.6609 34.371 56.25C34.371 55.8391 34.452 55.4322 34.6092 55.0526C34.7665 54.673 34.9969 54.328 35.2875 54.0375C35.8743 53.4507 36.6701 53.121 37.5 53.121C37.9109 53.121 38.3178 53.202 38.6974 53.3592C39.077 53.5164 39.4219 53.7469 39.7125 54.0375L46.875 61.2062L63.4125 44.6625C63.7028 44.3714 64.0476 44.1406 64.4273 43.983C64.8069 43.8255 65.214 43.7444 65.625 43.7444C66.036 43.7444 66.443 43.8255 66.8227 43.983C67.2024 44.1406 67.5472 44.3714 67.8375 44.6625Z" fill="current"/>
<path d="M21.875 0C22.7038 0 23.4987 0.32924 24.0847 0.915291C24.6708 1.50134 25 2.2962 25 3.125V6.25H75V3.125C75 2.2962 75.3292 1.50134 75.9153 0.915291C76.5013 0.32924 77.2962 0 78.125 0C78.9538 0 79.7487 0.32924 80.3347 0.915291C80.9208 1.50134 81.25 2.2962 81.25 3.125V6.25H87.5C90.8152 6.25 93.9946 7.56696 96.3388 9.91117C98.683 12.2554 100 15.4348 100 18.75V87.5C100 90.8152 98.683 93.9946 96.3388 96.3388C93.9946 98.683 90.8152 100 87.5 100H12.5C9.18479 100 6.00537 98.683 3.66117 96.3388C1.31696 93.9946 0 90.8152 0 87.5V18.75C0 15.4348 1.31696 12.2554 3.66117 9.91117C6.00537 7.56696 9.18479 6.25 12.5 6.25H18.75V3.125C18.75 2.2962 19.0792 1.50134 19.6653 0.915291C20.2513 0.32924 21.0462 0 21.875 0ZM6.25 25V87.5C6.25 89.1576 6.90848 90.7473 8.08058 91.9194C9.25268 93.0915 10.8424 93.75 12.5 93.75H87.5C89.1576 93.75 90.7473 93.0915 91.9194 91.9194C93.0915 90.7473 93.75 89.1576 93.75 87.5V25H6.25Z" fill="current"/>
</g>
<defs>
<clipPath id="clip0_1043_4">
<rect width="100" height="100" fill="white"/>
</clipPath>
</defs>
</svg>
