<svg width="69" height="46" viewBox="0 0 209 186" fill="none" xmlns="http://www.w3.org/2000/svg">
<path d="M206.889 136.62C206.889 136.533 206.882 136.446 206.882 136.353H206.889V77.7773H195.544V136.353C195.544 136.42 195.551 136.487 195.551 136.553C195.437 156.395 179.18 172.381 159.243 172.274C139.373 172.161 123.345 156.101 123.345 136.353V77.7773H112V136.353C112 162.3 133.061 183.414 159.175 183.554C185.377 183.708 206.741 162.688 206.889 136.62Z" fill="#007396"/>
<path fill-rule="evenodd" clip-rule="evenodd" d="M110.445 74.668H125.683V135.61C125.683 154.365 140.674 169.616 159.257 169.724C177.895 169.826 193.093 154.658 193.214 135.827L193.213 135.812C193.213 135.798 193.211 135.768 193.21 135.737C193.209 135.704 193.207 135.66 193.207 135.61V74.668H208.445V137.63H208.406C207.35 164.157 185.652 185.27 159.167 185.112C132.196 184.964 110.445 162.82 110.445 135.61V74.668ZM204.446 133.59V78.7083H197.207V135.593L197.208 135.61C197.208 135.618 197.209 135.628 197.209 135.641C197.21 135.654 197.21 135.67 197.211 135.686C197.212 135.719 197.214 135.762 197.214 135.812V135.818L197.213 135.824C197.094 156.899 180.089 173.879 159.235 173.765H159.234C138.449 173.644 121.684 156.586 121.684 135.61V78.7083H114.445V135.61C114.445 160.601 134.422 180.936 159.19 181.071H159.19C184.038 181.219 204.3 160.98 204.446 135.879C204.446 135.877 204.446 135.875 204.446 135.872C204.445 135.864 204.445 135.85 204.444 135.823C204.442 135.783 204.439 135.701 204.439 135.61V133.59H204.446Z" fill="#007396"/>
<path d="M96.4455 136.62C96.4455 136.533 96.4388 136.446 96.4388 136.353H96.4455V77.7773H85.1009V136.353C85.1009 136.42 85.1076 136.487 85.1076 136.553C84.9932 156.395 68.7365 172.381 48.7992 172.274C28.9292 172.161 12.9013 156.101 12.9013 136.353V77.7773H1.55664V136.353C1.55664 162.3 22.6176 183.414 48.7319 183.554C74.9337 183.708 96.2975 162.688 96.4455 136.62Z" fill="#007396"/>
<path fill-rule="evenodd" clip-rule="evenodd" d="M0 74.668H15.2379V135.61C15.2379 154.365 30.2283 169.616 48.8115 169.724C67.4494 169.826 82.6476 154.658 82.7686 135.827L82.7679 135.812L82.7678 135.809C82.767 135.794 82.7656 135.766 82.7645 135.736C82.7633 135.703 82.7621 135.66 82.7621 135.61V74.668H98V137.63H97.9605C96.9049 164.157 75.2068 185.27 48.7216 185.112C21.7504 184.964 0 162.82 0 135.61V74.668ZM94.0005 133.59V78.7083H86.7615V135.593L86.7624 135.61C86.7631 135.625 86.7646 135.655 86.7657 135.686C86.7667 135.712 86.7677 135.745 86.7681 135.783C86.7681 135.792 86.7682 135.802 86.7682 135.812V135.818L86.7682 135.824C86.6485 156.899 69.6437 173.879 48.7892 173.765H48.7885C28.0038 173.644 11.2385 156.586 11.2385 135.61V78.7083H3.99946V135.61C3.99946 160.601 23.9762 180.936 48.7442 181.071H48.7452C73.5931 181.219 93.8546 160.98 94.0005 135.878C94.0004 135.875 94.0001 135.862 93.9986 135.824L93.9984 135.818C93.9968 135.775 93.9939 135.697 93.9939 135.61V133.59H94.0005Z" fill="#007396"/>
<path d="M65.3299 73.1119C74.7801 73.1119 82.441 65.451 82.441 56.0008C82.441 46.5506 74.7801 38.8896 65.3299 38.8896C55.8797 38.8896 48.2188 46.5506 48.2188 56.0008C48.2188 65.451 55.8797 73.1119 65.3299 73.1119Z" fill="#007396"/>
<path d="M143.888 73.1119C152.909 73.1119 160.221 65.451 160.221 56.0008C160.221 46.5506 152.909 38.8896 143.888 38.8896C134.867 38.8896 127.555 46.5506 127.555 56.0008C127.555 65.451 134.867 73.1119 143.888 73.1119Z" fill="#007396"/>
<path fill-rule="evenodd" clip-rule="evenodd" d="M39.3716 29.7793C22.9289 39.0977 14.7225 50.8459 14.7225 62.2222H0C0 43.2838 13.4759 27.5861 32.0896 17.0373C50.9173 6.36727 76.4353 0 104.222 0C132.009 0 157.527 6.36727 176.355 17.0373C194.968 27.5861 208.444 43.2838 208.444 62.2222H193.722C193.722 50.8459 185.516 39.0977 169.073 29.7793C152.844 20.5821 129.932 14.6609 104.222 14.6609C78.5128 14.6609 55.6003 20.5821 39.3716 29.7793Z" fill="#007396"/>
</svg>
