<svg width="100" height="100" viewBox="0 0 100 100" fill="current" xmlns="http://www.w3.org/2000/svg">
<g clip-path="url(#clip0_1044_18)">
<path d="M31.25 39.0625C31.25 40.3057 30.7561 41.4979 29.8771 42.377C28.998 43.2561 27.8057 43.75 26.5625 43.75C25.3193 43.75 24.127 43.2561 23.2479 42.377C22.3689 41.4979 21.875 40.3057 21.875 39.0625C21.875 37.8192 22.3689 36.627 23.2479 35.7479C24.127 34.8688 25.3193 34.375 26.5625 34.375C27.8057 34.375 28.998 34.8688 29.8771 35.7479C30.7561 36.627 31.25 37.8192 31.25 39.0625ZM38.3625 29.7125C42.0739 28.653 45.9154 28.1187 49.775 28.125C53.9375 28.125 57.9188 28.7312 61.6063 29.8312C62.3943 30.0486 63.2361 29.9485 63.9512 29.5525C64.6663 29.1564 65.1978 28.4959 65.4316 27.7126C65.6654 26.9294 65.5831 26.0856 65.2021 25.3624C64.8211 24.6391 64.172 24.0939 63.3937 23.8437C58.9737 22.5301 54.3861 21.8669 49.775 21.875C45.1875 21.875 40.7688 22.5187 36.6375 23.7C35.8402 23.9287 35.1664 24.4648 34.7644 25.1903C34.3623 25.9159 34.265 26.7714 34.4938 27.5687C34.7225 28.366 35.2586 29.0398 35.9841 29.4418C36.7097 29.8439 37.5652 29.9412 38.3625 29.7125Z" fill="current"/>
<path fill-rule="evenodd" clip-rule="evenodd" d="M49.775 9.5437C31.1688 9.5437 14.9563 20.1937 10.275 35.325H6.83751C5.92632 35.326 5.02637 35.5262 4.20071 35.9116C3.37504 36.297 2.64364 36.8583 2.05774 37.5561C1.47184 38.254 1.04561 39.0715 0.808913 39.9514C0.572217 40.8313 0.53078 41.7523 0.687505 42.65L2.27501 51.775C2.65332 53.9504 3.78735 55.9224 5.47724 57.3436C7.16714 58.7648 9.30444 59.544 11.5125 59.5437H13.1563C15.0313 62.75 17.4563 65.6562 20.3125 68.1812L15.7563 83.6624C15.6192 84.1286 15.5928 84.6202 15.679 85.0984C15.7653 85.5765 15.9618 86.0279 16.253 86.4168C16.5442 86.8057 16.9221 87.1214 17.3567 87.3387C17.7912 87.556 18.2704 87.669 18.7563 87.6687H31.2563C31.9011 87.6688 32.5301 87.4694 33.0571 87.0979C33.5841 86.7264 33.9834 86.201 34.2 85.5937L37.2125 77.1499C41.1813 78.2312 45.4 78.8187 49.7813 78.8187C54.2 78.8187 58.4563 78.225 62.4563 77.1187L65.85 85.6937C66.0806 86.2763 66.481 86.7762 66.9993 87.1284C67.5175 87.4805 68.1297 87.6688 68.7563 87.6687H81.2563C81.7439 87.6682 82.2246 87.5536 82.66 87.3341C83.0954 87.1145 83.4734 86.7961 83.7637 86.4043C84.0541 86.0126 84.2487 85.5583 84.3321 85.0779C84.4154 84.5974 84.3852 84.1041 84.2438 83.6374L79.4875 67.975C86.3125 61.8437 90.625 53.4937 90.625 44.1812C90.625 43.275 90.5813 42.3687 90.5 41.4875C92.1313 40.8 93.675 39.825 94.9063 38.7125C96.875 40.6249 100 40.625 100 36.1062C100 37.5 96.875 37.5 97.1188 35.9437C97.3813 35.442 97.5707 34.9053 97.6813 34.35C97.8282 33.6261 97.7895 32.8767 97.5688 32.1719C97.348 31.467 96.9524 30.8294 96.4188 30.3187C95.8559 29.7386 95.1154 29.3632 94.3148 29.2523C93.5141 29.1413 92.6994 29.3011 92 29.7062C91.3569 30.0616 90.8084 30.566 90.4006 31.1772C89.9928 31.7884 89.7375 32.4885 89.6563 33.2187C89.5063 34.7375 90.1688 36.2187 91.6563 37.3062C91.1401 37.663 90.5991 37.9826 90.0375 38.2625C86.7 21.6125 69.5125 9.5437 49.775 9.5437ZM15.725 39.125C18.5688 26.2125 32.3938 15.7937 49.775 15.7937C69.4375 15.7937 84.375 29.0062 84.375 44.1812C84.375 52.0187 80.475 59.2437 73.9375 64.4812C73.4516 64.8721 73.0938 65.3993 72.91 65.9952C72.7262 66.5911 72.7249 67.2283 72.9063 67.825L77.0313 81.4187H70.875L67.1875 72.125C66.8906 71.376 66.3159 70.7707 65.5834 70.4353C64.8509 70.0999 64.0172 70.0604 63.2563 70.325C59.125 71.7625 54.5688 72.5687 49.775 72.5687C45.1874 72.5805 40.6303 71.8221 36.2938 70.325C35.5154 70.0544 34.6616 70.1022 33.9183 70.4581C33.175 70.8139 32.6024 71.4489 32.325 72.2249L29.0438 81.4187H22.925L26.8813 67.9812C27.0578 67.3824 27.0509 66.7445 26.8615 66.1496C26.6722 65.5547 26.309 65.0302 25.8188 64.6437C22.4748 62.0555 19.7361 58.7686 17.7938 55.0125C17.5336 54.4961 17.1353 54.0621 16.6432 53.7587C16.1511 53.4553 15.5844 53.2943 15.0063 53.2937H11.5063C10.7712 53.2929 10.06 53.033 9.49766 52.5598C8.93527 52.0866 8.55768 51.4303 8.43126 50.7062L6.84376 41.5812H12.675C13.3872 41.5806 14.0778 41.3368 14.6325 40.8901C15.1871 40.4434 15.5726 39.8206 15.725 39.125ZM94.6063 33.7687C94.495 34.2438 94.2864 34.6907 93.9938 35.0812C93.9002 35.0324 93.8085 34.9803 93.7188 34.925C92.8063 34.3625 92.7375 33.8312 92.7688 33.5312C92.7995 33.3069 92.8815 33.0928 93.0083 32.9053C93.1351 32.7178 93.3033 32.562 93.5 32.45C93.8063 32.2812 94 32.3187 94.2063 32.525C94.38 32.6761 94.5091 32.8718 94.5796 33.0911C94.6502 33.3103 94.6594 33.5446 94.6063 33.7687Z" fill="current"/>
</g>
<defs>
<clipPath id="clip0_1044_18">
<rect width="100" height="100" fill="white"/>
</clipPath>
</defs>
</svg>
