<svg width="100" height="100" viewBox="0 0 100 100" fill="current" xmlns="http://www.w3.org/2000/svg">
<g clip-path="url(#clip0_1044_15)">
<path d="M50 29.7125C47.3358 29.7125 44.6977 30.2373 42.2363 31.2568C39.7749 32.2764 37.5384 33.7707 35.6546 35.6546C33.7707 37.5385 32.2763 39.7749 31.2568 42.2363C30.2372 44.6977 29.7125 47.3358 29.7125 50C29.7125 52.6642 30.2372 55.3023 31.2568 57.7637C32.2763 60.2251 33.7707 62.4616 35.6546 64.3455C37.5384 66.2293 39.7749 67.7237 42.2363 68.7432C44.6977 69.7628 47.3358 70.2875 50 70.2875C55.3806 70.2875 60.5408 68.1501 64.3454 64.3455C68.1501 60.5408 70.2875 55.3806 70.2875 50C70.2875 44.6194 68.1501 39.4592 64.3454 35.6546C60.5408 31.85 55.3806 29.7125 50 29.7125ZM35.9625 50C35.9625 46.277 37.4414 42.7066 40.074 40.074C42.7065 37.4415 46.277 35.9625 50 35.9625C53.723 35.9625 57.2935 37.4415 59.926 40.074C62.5585 42.7066 64.0375 46.277 64.0375 50C64.0375 53.723 62.5585 57.2935 59.926 59.926C57.2935 62.5586 53.723 64.0375 50 64.0375C46.277 64.0375 42.7065 62.5586 40.074 59.926C37.4414 57.2935 35.9625 53.723 35.9625 50Z" fill="current"/>
<path d="M61.225 8.39374C57.9312 -2.79376 42.0687 -2.79376 38.775 8.39374L38.1875 10.3875C37.9575 11.1684 37.5556 11.888 37.0113 12.4935C36.4671 13.0989 35.7942 13.5749 35.0421 13.8866C34.29 14.1982 33.4777 14.3376 32.6647 14.2945C31.8517 14.2514 31.0587 14.0269 30.3437 13.6375L28.5187 12.6375C18.2687 7.06249 7.06249 18.275 12.6437 28.5187L13.6375 30.3437C14.0269 31.0587 14.2514 31.8517 14.2945 32.6647C14.3376 33.4777 14.1982 34.29 13.8866 35.0421C13.5749 35.7942 13.0989 36.4671 12.4935 37.0113C11.888 37.5556 11.1684 37.9575 10.3875 38.1875L8.39374 38.775C-2.79376 42.0687 -2.79376 57.9312 8.39374 61.225L10.3875 61.8125C11.1684 62.0425 11.888 62.4444 12.4935 62.9886C13.0989 63.5329 13.5749 64.2057 13.8866 64.9579C14.1982 65.71 14.3376 66.5223 14.2945 67.3353C14.2514 68.1483 14.0269 68.9413 13.6375 69.6562L12.6375 71.4812C7.06249 81.7312 18.2687 92.9437 28.5187 87.3562L30.3437 86.3625C31.0587 85.9731 31.8517 85.7486 32.6647 85.7055C33.4777 85.6624 34.29 85.8018 35.0421 86.1134C35.7942 86.425 36.4671 86.901 37.0113 87.5065C37.5556 88.112 37.9575 88.8315 38.1875 89.6125L38.775 91.6062C42.0687 102.794 57.9312 102.794 61.225 91.6062L61.8125 89.6125C62.0425 88.8315 62.4444 88.112 62.9886 87.5065C63.5329 86.901 64.2057 86.425 64.9579 86.1134C65.71 85.8018 66.5223 85.6624 67.3353 85.7055C68.1483 85.7486 68.9413 85.9731 69.6562 86.3625L71.4812 87.3625C81.7312 92.9437 92.9437 81.725 87.3562 71.4812L86.3625 69.6562C85.9731 68.9413 85.7486 68.1483 85.7055 67.3353C85.6624 66.5223 85.8018 65.71 86.1134 64.9579C86.425 64.2057 86.901 63.5329 87.5065 62.9886C88.112 62.4444 88.8315 62.0425 89.6125 61.8125L91.6062 61.225C102.794 57.9312 102.794 42.0687 91.6062 38.775L89.6125 38.1875C88.8315 37.9575 88.112 37.5556 87.5065 37.0113C86.901 36.4671 86.425 35.7942 86.1134 35.0421C85.8018 34.29 85.6624 33.4777 85.7055 32.6647C85.7486 31.8517 85.9731 31.0587 86.3625 30.3437L87.3625 28.5187C92.9437 18.2687 81.725 7.06249 71.4812 12.6437L69.6562 13.6375C68.9413 14.0269 68.1483 14.2514 67.3353 14.2945C66.5223 14.3376 65.71 14.1982 64.9579 13.8866C64.2057 13.5749 63.5329 13.0989 62.9886 12.4935C62.4444 11.888 62.0425 11.1684 61.8125 10.3875L61.225 8.39374ZM44.7687 10.1625C46.3062 4.94374 53.6937 4.94374 55.2312 10.1625L55.8187 12.1562C56.3126 13.8318 57.1752 15.3755 58.3433 16.6744C59.5113 17.9732 60.9553 18.9941 62.5692 19.6624C64.1832 20.3306 65.9262 20.6292 67.6705 20.5362C69.4148 20.4432 71.1162 19.961 72.65 19.125L74.4687 18.125C79.2437 15.5312 84.4687 20.75 81.8687 25.5312L80.875 27.3562C80.0402 28.8902 79.5592 30.5914 79.4673 32.3353C79.3753 34.0793 79.6746 35.8217 80.3434 37.4349C81.0122 39.0481 82.0334 40.4913 83.3323 41.6586C84.6312 42.8259 86.1748 43.6879 87.85 44.1812L89.8375 44.7687C95.0562 46.3062 95.0562 53.6937 89.8375 55.2312L87.8437 55.8187C86.1682 56.3126 84.6244 57.1752 83.3256 58.3433C82.0268 59.5113 81.0058 60.9553 80.3376 62.5692C79.6694 64.1832 79.3708 65.9262 79.4638 67.6705C79.5568 69.4148 80.039 71.1162 80.875 72.65L81.875 74.4687C84.4687 79.2437 79.25 84.4687 74.4687 81.8687L72.65 80.875C71.1158 80.039 69.414 79.5571 67.6693 79.4645C65.9247 79.3719 64.1814 79.671 62.5674 80.3399C60.9534 81.0088 59.5095 82.0304 58.3417 83.3299C57.174 84.6295 56.3119 86.1739 55.8187 87.85L55.2312 89.8375C53.6937 95.0562 46.3062 95.0562 44.7687 89.8375L44.1812 87.8437C43.6871 86.1691 42.8247 84.6262 41.6571 83.328C40.4894 82.0298 39.0462 81.0093 37.433 80.3411C35.8199 79.673 34.0777 79.3742 32.3342 79.4665C30.5906 79.5589 28.8897 80.0401 27.3562 80.875L25.5312 81.875C20.7562 84.4687 15.5312 79.25 18.1312 74.4687L19.125 72.65C19.9622 71.116 20.4453 69.414 20.5389 67.669C20.6325 65.9239 20.3342 64.18 19.6659 62.5653C18.9976 60.9505 17.9762 59.5059 16.6767 58.3374C15.3773 57.1689 13.8326 56.3061 12.1562 55.8125L10.1625 55.225C4.94374 53.6875 4.94374 46.3 10.1625 44.7625L12.1562 44.175C13.83 43.6807 15.3721 42.8184 16.6696 41.6512C17.9671 40.484 18.9873 39.0414 19.6553 37.4291C20.3234 35.8168 20.6225 34.0754 20.5307 32.3326C20.439 30.5898 19.9587 28.8895 19.125 27.3562L18.125 25.5312C15.5312 20.7562 20.75 15.5312 25.5312 18.1312L27.3562 19.125C28.8897 19.9598 30.5906 20.4411 32.3342 20.5334C34.0777 20.6258 35.8199 20.327 37.433 19.6588C39.0462 18.9907 40.4894 17.9702 41.6571 16.672C42.8247 15.3738 43.6871 13.8309 44.1812 12.1562L44.7687 10.1625Z" fill="current"/>
</g>
<defs>
<clipPath id="clip0_1044_15">
<rect width="100" height="100" fill="white"/>
</clipPath>
</defs>
</svg>
