<svg width="100" height="100" viewBox="0 0 100 100" fill="current" xmlns="http://www.w3.org/2000/svg">
<g clip-path="url(#clip0_1192_31)">
<path d="M2.05625 64.5813C5.19244 74.834 11.5374 83.8091 20.1571 90.1852C28.7768 96.5614 39.2158 100.002 49.9375 100C77.5875 100 100 77.6125 100 50C100 22.3875 77.5875 3.74865e-06 49.9438 3.74865e-06C37.2517 -0.00490614 25.0321 4.8135 15.7591 13.4795C6.48615 22.1456 0.852899 34.0116 0 46.675L0.01875 46.7125L26.9188 57.7688C29.3449 56.1625 32.2183 55.3681 35.125 55.5L47.375 37.725L47.3687 37.475C47.3737 32.4335 49.3782 27.5999 52.9425 24.0344C56.5068 20.469 61.3398 18.4629 66.3813 18.4563C71.4227 18.4629 76.2557 20.469 79.82 24.0344C83.3843 27.5999 85.3888 32.4335 85.3938 37.475C85.3918 40.0083 84.8845 42.5158 83.9014 44.8505C82.9183 47.1853 81.4793 49.3005 79.6686 51.0722C77.8579 52.8439 75.7119 54.2365 73.3563 55.1686C71.0006 56.1006 68.4827 56.5532 65.95 56.5L48.425 69C48.4844 71.3154 47.9641 73.609 46.9113 75.672C45.8585 77.7351 44.3066 79.5022 42.3968 80.8127C40.487 82.1232 38.2798 82.9354 35.9761 83.1755C33.6724 83.4156 31.3452 83.076 29.2062 82.1875C27.1533 81.332 25.3364 79.9949 23.9091 78.2892C22.4819 76.5834 21.4862 74.5592 21.0063 72.3875L2.0625 64.5813H2.05625Z" fill="current"/>
<path d="M30.425 79.2687C33.0289 80.2626 35.9177 80.2032 38.4785 79.1029C41.0394 78.0027 43.071 75.9483 44.1425 73.3752C45.2139 70.8022 45.241 67.913 44.218 65.3203C43.195 62.7277 41.2023 60.6355 38.6625 59.4874C36.1443 58.4366 33.3189 58.3919 30.7687 59.3624L37.1625 62.0124C38.1187 62.4105 38.9871 62.993 39.7182 63.7267C40.4492 64.4603 41.0286 65.3308 41.4233 66.2885C41.8179 67.2461 42.0201 68.272 42.0182 69.3077C42.0164 70.3435 41.8105 71.3687 41.4125 72.3249C41.0144 73.2811 40.4319 74.1495 39.6982 74.8806C38.9645 75.6116 38.094 76.191 37.1364 76.5857C36.1788 76.9803 35.1529 77.1825 34.1171 77.1807C33.0814 77.1788 32.0562 76.973 31.1 76.5749L24.9125 74.0124C26.0385 76.3832 28.0021 78.2596 30.425 79.2687ZM53.7125 37.4749C53.7141 40.8355 55.049 44.0582 57.4241 46.4357C59.7993 48.8131 63.0206 50.1512 66.3812 50.1562C69.7418 50.1512 72.9632 48.8131 75.3383 46.4357C77.7135 44.0582 79.0483 40.8355 79.05 37.4749C79.045 34.1165 77.7087 30.897 75.3339 28.5222C72.9591 26.1474 69.7397 24.8111 66.3812 24.8062C63.0228 24.8111 59.8033 26.1474 57.4285 28.5222C55.0538 30.897 53.7174 34.1165 53.7125 37.4749ZM66.4 27.9312C67.6508 27.932 68.8892 28.1792 70.0446 28.6586C71.1999 29.138 72.2494 29.8403 73.1333 30.7254C74.0172 31.6104 74.7182 32.6609 75.1961 33.8169C75.674 34.9728 75.9195 36.2116 75.9187 37.4624C75.9179 38.7132 75.6707 39.9517 75.1913 41.107C74.7119 42.2623 74.0096 43.3119 73.1245 44.1958C72.2394 45.0797 71.189 45.7806 70.033 46.2585C68.8771 46.7364 67.6383 46.982 66.3875 46.9812C63.8613 46.9795 61.4392 45.9744 59.6541 44.1869C57.869 42.3995 56.8671 39.9761 56.8687 37.4499C56.8704 34.9237 57.8755 32.5017 59.663 30.7165C61.4504 28.9314 63.8738 27.9295 66.4 27.9312Z" fill="current"/>
</g>
<defs>
<clipPath id="clip0_1192_31">
<rect width="100" height="100" fill="white"/>
</clipPath>
</defs>
</svg>
