<svg width="100" height="100" viewBox="0 0 100 100" fill="none" xmlns="http://www.w3.org/2000/svg">
<g clip-path="url(#clip0_1192_2)">
<path d="M51.3188 12.7937C50.9057 12.6015 50.4556 12.5018 50 12.5018C49.5444 12.5018 49.0943 12.6015 48.6813 12.7937L1.80626 34.6687C1.25427 34.9264 0.789621 35.3397 0.469451 35.8579C0.14928 36.3762 -0.0124493 36.9767 0.0041518 37.5856C0.0207529 38.1945 0.214961 38.7853 0.562891 39.2853C0.910822 39.7854 1.3973 40.1728 1.96251 40.4L48.8375 59.15C49.5837 59.449 50.4163 59.449 51.1625 59.15L87.5 44.625V81.25C85.8424 81.25 84.2527 81.9084 83.0806 83.0805C81.9085 84.2527 81.25 85.8424 81.25 87.5V100H100V87.5C100 85.8424 99.3415 84.2527 98.1694 83.0805C96.9973 81.9084 95.4076 81.25 93.75 81.25V42.1187L98.0375 40.4C98.6027 40.1728 99.0892 39.7854 99.4371 39.2853C99.7851 38.7853 99.9793 38.1945 99.9959 37.5856C100.012 36.9767 99.8507 36.3762 99.5306 35.8579C99.2104 35.3397 98.7457 34.9264 98.1938 34.6687L51.3188 12.7937Z" fill="black"/>
<path d="M26.1 56.45C25.6976 56.2984 25.2682 56.2315 24.8388 56.2535C24.4093 56.2754 23.989 56.3858 23.6042 56.5776C23.2194 56.7694 22.8783 57.0386 22.6022 57.3683C22.3262 57.6981 22.1212 58.0812 22 58.4938L18.875 69.1188C18.6561 69.8647 18.7231 70.6654 19.0628 71.3646C19.4026 72.0637 19.9908 72.6112 20.7125 72.9L48.8375 84.15C49.5836 84.449 50.4163 84.449 51.1625 84.15L79.2875 72.9C80.0092 72.6112 80.5974 72.0637 80.9371 71.3646C81.2769 70.6654 81.3439 69.8647 81.125 69.1188L78 58.4938C77.8788 58.0812 77.6738 57.6981 77.3978 57.3683C77.1217 57.0386 76.7806 56.7694 76.3958 56.5776C76.0109 56.3858 75.5906 56.2754 75.1612 56.2535C74.7317 56.2315 74.3024 56.2984 73.9 56.45L50 65.4125L26.1 56.45Z" fill="black"/>
</g>
<defs>
<clipPath id="clip0_1192_2">
<rect width="100" height="100" fill="white"/>
</clipPath>
</defs>
</svg>
