<svg width="100" height="100" viewBox="0 0 100 100" fill="none" xmlns="http://www.w3.org/2000/svg">
<g clip-path="url(#clip0_1192_19)">
<path d="M50 93.75C38.3968 93.75 27.2688 89.1406 19.0641 80.9359C10.8594 72.7312 6.25 61.6032 6.25 50C6.25 38.3968 10.8594 27.2688 19.0641 19.0641C27.2688 10.8594 38.3968 6.25 50 6.25C61.6032 6.25 72.7312 10.8594 80.9359 19.0641C89.1406 27.2688 93.75 38.3968 93.75 50C93.75 61.6032 89.1406 72.7312 80.9359 80.9359C72.7312 89.1406 61.6032 93.75 50 93.75ZM50 100C63.2608 100 75.9785 94.7322 85.3553 85.3553C94.7322 75.9785 100 63.2608 100 50C100 36.7392 94.7322 24.0215 85.3553 14.6447C75.9785 5.26784 63.2608 0 50 0C36.7392 0 24.0215 5.26784 14.6447 14.6447C5.26784 24.0215 0 36.7392 0 50C0 63.2608 5.26784 75.9785 14.6447 85.3553C24.0215 94.7322 36.7392 100 50 100Z" fill="black"/>
<path d="M70.7187 62.5875C71.312 62.4478 71.9332 62.4847 72.5058 62.6936C73.0784 62.9024 73.5774 63.2742 73.9414 63.7631C74.3054 64.2519 74.5185 64.8366 74.5545 65.445C74.5904 66.0535 74.4477 66.6592 74.1437 67.1875C71.6758 71.4647 68.1247 75.0164 63.8478 77.485C59.571 79.9537 54.7194 81.2522 49.7812 81.25C44.8431 81.2522 39.9915 79.9537 35.7146 77.485C31.4378 75.0164 27.8867 71.4647 25.4187 67.1875C25.1148 66.6592 24.9721 66.0535 25.008 65.445C25.0439 64.8366 25.257 64.2519 25.621 63.7631C25.985 63.2742 26.4841 62.9024 27.0567 62.6936C27.6293 62.4847 28.2505 62.4478 28.8437 62.5875H28.875L28.9812 62.6188L29.4 62.7125L30.975 63.0563C32.3187 63.3438 34.1937 63.7313 36.3312 64.1125C40.6625 64.8875 45.8437 65.625 49.7812 65.625C53.7187 65.625 58.9062 64.8875 63.2312 64.1125C65.5513 63.6951 67.8623 63.2283 70.1625 62.7125L70.5812 62.6188L70.6875 62.5938L70.7187 62.5813V62.5875ZM29.725 28.5375C34.4937 19.6375 54.85 27.7875 35.675 50C7.57499 40.025 20.9875 23.1375 29.725 28.5375ZM70.275 28.5375C79.0125 23.1375 92.425 40.025 64.325 50C45.1562 27.7875 65.5125 19.6375 70.275 28.5375Z" fill="black"/>
</g>
<defs>
<clipPath id="clip0_1192_19">
<rect width="100" height="100" fill="white"/>
</clipPath>
</defs>
</svg>
