<svg width="100" height="100" viewBox="0 0 100 100" fill="current" xmlns="http://www.w3.org/2000/svg">
<g clip-path="url(#clip0_1043_13)">
<path d="M75.85 2.03755C77.2316 1.69194 78.6738 1.66566 80.0671 1.96069C81.4604 2.25572 82.7682 2.86432 83.8911 3.74027C85.0141 4.61622 85.9227 5.7365 86.548 7.01607C87.1733 8.29564 87.4989 9.70086 87.5 11.125V18.75H90.625C93.1114 18.75 95.496 19.7378 97.2541 21.4959C99.0123 23.2541 100 25.6386 100 28.125V84.375C100 86.8615 99.0123 89.246 97.2541 91.0042C95.496 92.7623 93.1114 93.75 90.625 93.75H9.375C6.8886 93.75 4.50403 92.7623 2.74587 91.0042C0.987721 89.246 6.13073e-07 86.8615 6.13073e-07 84.375V28.125C-0.000871629 25.7116 0.929015 23.3909 2.59611 21.6458C4.2632 19.9007 6.53907 18.8657 8.95 18.7563L75.85 2.03755ZM34.7625 18.75H81.25V11.125C81.2489 10.6509 81.14 10.1832 80.9314 9.7574C80.7228 9.33159 80.42 8.95883 80.046 8.66736C79.6721 8.37588 79.2367 8.17333 78.7728 8.07504C78.3089 7.97675 77.8288 7.9853 77.3687 8.10005L34.7625 18.75ZM9.375 25C8.5462 25 7.75134 25.3293 7.16529 25.9153C6.57924 26.5014 6.25 27.2962 6.25 28.125V84.375C6.25 85.2038 6.57924 85.9987 7.16529 86.5848C7.75134 87.1708 8.5462 87.5 9.375 87.5H90.625C91.4538 87.5 92.2487 87.1708 92.8347 86.5848C93.4208 85.9987 93.75 85.2038 93.75 84.375V28.125C93.75 27.2962 93.4208 26.5014 92.8347 25.9153C92.2487 25.3293 91.4538 25 90.625 25H9.375Z" fill="current"/>
</g>
<defs>
<clipPath id="clip0_1043_13">
<rect width="100" height="100" fill="white"/>
</clipPath>
</defs>
</svg>
