<svg width="100" height="100" viewBox="0 0 100 100" fill="current" xmlns="http://www.w3.org/2000/svg">
<path d="M96.15 38.2188C96.4643 37.9136 96.7086 37.5439 96.8663 37.1352C97.024 36.7264 97.0911 36.2884 97.0632 35.8511C97.0353 35.4139 96.9129 34.988 96.7046 34.6026C96.4962 34.2172 96.2068 33.8816 95.8562 33.6188C82.5314 23.931 66.4744 18.7246 50 18.7501C32.8687 18.7501 17.0187 24.2626 4.14374 33.6188C3.79277 33.8811 3.50283 34.2164 3.29389 34.6015C3.08496 34.9866 2.962 35.4125 2.93349 35.8497C2.90497 36.2869 2.97158 36.7251 3.12872 37.1341C3.28587 37.5431 3.52981 37.9132 3.84374 38.2188C4.38996 38.7568 5.10938 39.0835 5.87393 39.1408C6.63847 39.198 7.39851 38.982 8.01874 38.5313C20.2384 29.7125 34.9305 24.977 50 25.0001C65.6687 25.0001 80.1687 30.0126 91.975 38.5251C93.2562 39.4501 95.0375 39.3376 96.15 38.2188Z" fill="current"/>
<path d="M82.6812 51.6938C83.0033 51.3831 83.252 51.0045 83.4095 50.5856C83.5669 50.1667 83.629 49.718 83.5913 49.2721C83.5536 48.8262 83.417 48.3943 83.1915 48.0078C82.9659 47.6212 82.6571 47.2898 82.2875 47.0376C72.6774 40.795 61.4596 37.4814 50 37.5001C38.0937 37.5001 27 41.0001 17.7125 47.0376C17.3409 47.2883 17.0303 47.6192 16.8034 48.0057C16.5765 48.3923 16.4391 48.8248 16.4014 49.2715C16.3636 49.7181 16.4264 50.1676 16.5851 50.5868C16.7439 51.006 16.9946 51.3842 17.3187 51.6938C17.8513 52.2136 18.5446 52.5369 19.2851 52.6107C20.0255 52.6845 20.7691 52.5045 21.3937 52.1001C29.9314 46.6317 39.8612 43.7332 50 43.7501C60.1366 43.7344 70.0641 46.6328 78.6 52.1001C79.8875 52.9251 81.6 52.7751 82.6812 51.6938ZM69.0375 65.3376C70.45 63.9251 70.1937 61.5563 68.4125 60.6501C62.7093 57.7479 56.3991 56.2399 50 56.2501C43.375 56.2501 37.1125 57.8376 31.5875 60.6501C29.8062 61.5563 29.55 63.9251 30.9625 65.3376L31.0562 65.4313C32.0562 66.4313 33.6 66.6188 34.875 65.9938C39.5827 63.6866 44.7573 62.4913 50 62.5001C55.425 62.5001 60.5625 63.7563 65.125 66.0001C66.3937 66.6251 67.9375 66.4376 68.9375 65.4313L69.0375 65.3376ZM56.625 77.7501C57.85 76.5251 57.8625 74.5001 56.375 73.6251C54.4468 72.4773 52.2439 71.8726 50 71.8751C47.756 71.8726 45.5532 72.4773 43.625 73.6251C42.1375 74.5001 42.15 76.5251 43.375 77.7501L47.7875 82.1626C48.3735 82.7484 49.1682 83.0775 49.9969 83.0775C50.8255 83.0775 51.6202 82.7484 52.2062 82.1626L56.625 77.7501Z" fill="black"/>
</svg>
